<svg height="490.66667pt" viewBox="0 0 490.66667 490.66667" width="490.66667pt" xmlns="http://www.w3.org/2000/svg"><path d="m490.667969 245.332031c0 135.496094-109.839844 245.335938-245.335938 245.335938-135.492187 0-245.332031-109.839844-245.332031-245.335938 0-135.492187 109.839844-245.332031 245.332031-245.332031 135.496094 0 245.335938 109.839844 245.335938 245.332031zm0 0" fill="#d0d7df"/><path d="m437.332031 245.332031c0 106.039063-85.960937 192-192 192-106.039062 0-192-85.960937-192-192 0-106.039062 85.960938-192 192-192 106.039063 0 192 85.960938 192 192zm0 0" fill="#49aaee"/><path d="m313.171875 177.492188-45.226563 90.453124-45.226562-45.226562zm0 0" fill="#fa5c66"/><path d="m267.945312 267.945312-90.453124 45.226563 45.226562-90.453125zm0 0" fill="#f1f2f2"/></svg>